{"title":"Gallowwalkers 2012 BRRip 720p x264 AAC - PRiSTiNE [P2PDL]","uid":8739300,"size":639525794,"categoryP":"video","categoryS":"hd___movies","magnet":"?xt=urn:btih:deec51133c25b0edd04c690013f6684fe857cb1e&amp;dn=Gallowwalkers+2012+BRRip+720p+x264+AAC+-+PRiSTiNE+%5BP2PDL%5D&amp;tr=udp%3A%2F%2Ftracker.openbittorrent.com%3A80&amp;tr=udp%3A%2F%2Fopen.demonii.com%3A1337&amp;tr=udp%3A%2F%2Ftracker.coppersurfer.tk%3A6969&amp;tr=udp%3A%2F%2Fexodus.desync.com%3A6969","seeders":0,"leechers":1,"uploader":"ValidusVyto","files":-1,"time":1374746550,"description":"_______ Visit us at our Semi Public Bittorrent Community ________\n  &lt;a href=&quot;\nhttp://p2pdl.com&quot; rel=&quot;nofollow&quot; target=&quot;_NEW&quot;&gt;\nhttp://p2pdl.com&lt;/a&gt;  _____________________________ &lt;a href=&quot; http://p2pdl.com&quot; rel=&quot;nofollow&quot; target=&quot;_NEW&quot;&gt; http://p2pdl.com&lt;/a&gt;\n\n\nGallowwalkers 2012 BRRip 720p x264 AAC - PRiSTiNE\n\n\nGenre: Action | Fantasy | Horror\nPlot: A cursed gunman (Snipes) whose victims come back from the dead recruits a young\nwarrior to help in the fight against a gang of zombies. \nDirector: Andrew Goth\nStars: Wesley Snipes, Kevin Howarth, Riley Smith.\nRated: R for bloody violence, grisly images, some language and brief nudity.\n\n\nIMDb: &lt;a href=&quot;\nhttp://www.imdb.com/title/tt0829176/&quot; rel=&quot;nofollow&quot; target=&quot;_NEW&quot;&gt;\nhttp://www.imdb.com/title/tt0829176/&lt;/a&gt;\n\nTrailer:\n\n\nFormat                         : MPEG-4\nFile size                      : 601 MiB\nDuration                       : 1h 32mn\nOverall bit rate               : 910 Kbps\nSource                         : 720p.BluRay.x264-ETM\n\nVideo\nFormat                         : AVC\nBit rate                       : 828 Kbps\nWidth                          : 1 280 pixels\nHeight                         : 544 pixels\nDisplay aspect ratio           : 2.35:1\nFrame rate mode                : Constant\nFrame rate                     : 23.976 fps\nStream size                    : 546 MiB (91%)\nWriting library                : x264 core 130 r2273\n\nAudio\nID                             : 2\nFormat                         : AAC\nBit rate mode                  : Variable\nBit rate                       : 79.8 Kbps\nChannel(s)                     : 2 channels\nChannel positions              : Front: L R\nSampling rate                  : 48.0 KHz\nStream size                    : 52.7 MiB (9%)\nLanguage                       : English\n\nSubtitle                       : N/a\n &lt;a href=&quot;\nhttp://someimage.com/lt9iiiA&quot; rel=&quot;nofollow&quot; target=&quot;_NEW&quot;&gt;\nhttp://someimage.com/lt9iiiA&lt;/a&gt; &lt;a href=&quot;\nhttp://someimage.com/OkfxdHh&quot; rel=&quot;nofollow&quot; target=&quot;_NEW&quot;&gt;\nhttp://someimage.com/OkfxdHh&lt;/a&gt; &lt;a href=&quot;\nhttp://someimage.com/ppXz0VF&quot; rel=&quot;nofollow&quot; target=&quot;_NEW&quot;&gt;\nhttp://someimage.com/ppXz0VF&lt;/a&gt; &lt;a href=&quot;\nhttp://someimage.com/o9YodF1&quot; rel=&quot;nofollow&quot; target=&quot;_NEW&quot;&gt;\nhttp://someimage.com/o9YodF1&lt;/a&gt; &lt;a href=&quot;\nhttp://someimage.com/2Ac0aEo&quot; rel=&quot;nofollow&quot; target=&quot;_NEW&quot;&gt;\nhttp://someimage.com/2Ac0aEo&lt;/a&gt; &lt;a href=&quot;\nhttp://someimage.com/nScjsiW&quot; rel=&quot;nofollow&quot; target=&quot;_NEW&quot;&gt;\nhttp://someimage.com/nScjsiW&lt;/a&gt; &lt;a href=&quot;\nhttp://someimage.com/iCSyRFX&quot; rel=&quot;nofollow&quot; target=&quot;_NEW&quot;&gt;\nhttp://someimage.com/iCSyRFX&lt;/a&gt; &lt;a href=&quot;\nhttp://someimage.com/IqtWpib&quot; rel=&quot;nofollow&quot; target=&quot;_NEW&quot;&gt;\nhttp://someimage.com/IqtWpib&lt;/a&gt;\n\n----------------------------------------------------------------------------------------------------\n\n\nEncoded using revolutionary 10bit encoding, which enables us to provide you more crispier \nand sharper images at small sizes, just make sure you follow our instructions without a fault.\nRecommend to you to use latest version of VLC player. Install K-Lite Codec Pack or shark007 codecs\nin case of any kind of problem in playback (For non-VLC Media Player users). Alternatively, install\nCore AVC codecs, the fastest decoder that there is coupled with Community Center Codec Pack and play\non Windows Media Player Classic. Check sample to be sure.\nEnjoy!\n\nEncoder Notes:Looking For Early Access To Anything You Can Provide DVDScr, R5, DVDR, BluRay, Direct\nAudio, Music Releases and Seedboxes. We require dedicated servers, so as to do more \nand fast releases of movies.\nIf You Got anything to offer please contact us at &quot;&lt;a class=&quot;__cf_email__&quot; href=&quot;/cdn-cgi/l/email-protection&quot; data-cfemail=&quot;89f9fbeec9e1fcfae1a7eae6e4&quot;&gt;[email&amp;#160;protected]&lt;/a&gt;&lt;script cf-hash='f9e31' type=&quot;text/javascript&quot;&gt;\n/* &lt;![CDATA[ */!function(){try{var t=&quot;currentScript&quot;in document?document.currentScript:function(){for(var t=document.getElementsByTagName(&quot;script&quot;),e=t.length;e--;)if(t[e].getAttribute(&quot;cf-hash&quot;))return t[e]}();if(t&amp;&amp;t.previousSibling){var e,r,n,i,c=t.previousSibling,a=c.getAttribute(&quot;data-cfemail&quot;);if(a){for(e=&quot;&quot;,r=parseInt(a.substr(0,2),16),n=2;a.length-n;n+=2)i=parseInt(a.substr(n,2),16)^r,e+=String.fromCharCode(i);e=document.createTextNode(e),c.parentNode.replaceChild(e,c)}}}catch(u){}}();/* ]]&gt; */&lt;/script&gt;&quot;.\n\nFace book Fan Page:  \nSearch P2PDL on FB!","torrent":{"xt":"urn:btih:deec51133c25b0edd04c690013f6684fe857cb1e","amp;dn":"Gallowwalkers+2012+BRRip+720p+x264+AAC+-+PRiSTiNE+%5BP2PDL%5D","amp;tr":["udp%3A%2F%2Ftracker.openbittorrent.com%3A80","udp%3A%2F%2Fopen.demonii.com%3A1337","udp%3A%2F%2Ftracker.coppersurfer.tk%3A6969","udp%3A%2F%2Fexodus.desync.com%3A6969"],"infoHash":"deec51133c25b0edd04c690013f6684fe857cb1e","infoHashBuffer":{"type":"Buffer","data":[222,236,81,19,60,37,176,237,208,76,105,0,19,246,104,79,232,87,203,30]},"announce":[],"urlList":[]}}